<?xml version="1.0" standalone="no"?>
<!DOCTYPE svg PUBLIC "-//W3C//DTD SVG 20010904//EN"
 "http://www.w3.org/TR/2001/REC-SVG-20010904/DTD/svg10.dtd">
<svg version="1.0" xmlns="http://www.w3.org/2000/svg"
 width="761.000000pt" height="255.000000pt" viewBox="0 0 761.000000 255.000000"
 preserveAspectRatio="xMidYMid meet">

<g transform="translate(0.000000,255.000000) scale(0.100000,-0.100000)"
fill="#000000" stroke="none">
<path d="M4920 2524 c-60 -26 -93 -59 -160 -157 -36 -53 -70 -97 -76 -97 -6 0
-28 14 -49 30 -49 39 -127 62 -182 54 -75 -11 -141 -60 -201 -149 -44 -65 -64
-84 -103 -103 -26 -13 -60 -38 -75 -55 -39 -46 -82 -144 -94 -212 -21 -121
-33 -176 -42 -181 -4 -3 -31 15 -59 39 -61 53 -118 72 -193 64 -72 -7 -126
-37 -177 -97 -39 -46 -45 -50 -88 -50 -25 -1 -57 -7 -71 -15 -44 -25 -74 -19
-108 24 -34 42 -85 70 -150 83 -33 6 -57 3 -102 -12 -69 -23 -80 -24 -80 -7 0
75 -81 176 -162 203 -64 21 -158 15 -215 -15 -23 -11 -45 -21 -48 -21 -3 0
-15 21 -27 48 -41 95 -87 135 -187 162 -33 9 -60 9 -110 0 -167 -29 -254 -112
-268 -255 l-6 -65 -56 0 c-31 -1 -81 -9 -111 -20 -30 -11 -60 -19 -66 -20 -7
0 -13 27 -16 68 -6 80 -38 157 -92 219 -38 44 -124 93 -163 93 -15 0 -48 23
-91 63 -82 77 -176 131 -261 151 -36 8 -96 31 -135 51 -139 69 -258 68 -390
-4 -43 -23 -98 -44 -135 -51 -75 -13 -215 -76 -272 -121 -84 -66 -120 -203
-85 -322 9 -31 21 -94 27 -140 7 -59 20 -102 44 -153 24 -48 35 -85 35 -115 0
-72 19 -168 51 -261 25 -71 31 -108 34 -195 3 -60 9 -126 14 -148 6 -22 11
-69 11 -105 1 -36 7 -81 15 -100 37 -96 55 -153 74 -233 26 -112 59 -184 110
-240 117 -126 314 -114 408 26 18 27 35 65 38 85 3 20 18 77 32 126 23 79 25
96 16 140 -6 28 -9 53 -7 55 2 2 23 -4 46 -15 68 -30 183 -147 256 -259 70
-109 205 -249 269 -281 55 -27 165 -25 218 3 76 41 130 115 141 196 8 59 -12
179 -42 251 -14 34 -27 66 -29 71 -2 6 15 22 38 37 l42 27 55 -54 c94 -92 169
-106 276 -50 38 20 73 34 80 31 6 -2 14 -26 18 -53 3 -28 20 -73 39 -103 86
-145 271 -160 415 -34 66 58 94 111 101 194 l6 65 60 6 c33 4 75 12 94 19 26
10 44 10 88 0 64 -14 136 -1 180 33 46 36 96 29 330 -49 83 -28 124 -30 183
-9 23 8 46 15 50 15 4 0 10 -35 13 -79 8 -127 59 -214 152 -264 56 -30 164
-30 221 0 71 38 134 126 150 208 4 22 15 64 25 94 11 30 19 68 19 86 0 47 9
48 51 10 59 -53 102 -68 193 -68 l78 1 19 -47 c19 -44 57 -126 103 -221 42
-85 173 -148 288 -137 108 10 193 83 218 188 11 44 10 64 -5 135 -10 46 -15
90 -12 98 4 9 25 17 54 21 26 3 67 11 90 17 40 10 44 9 77 -20 39 -34 114 -54
169 -45 33 5 37 2 60 -33 13 -22 34 -48 46 -58 27 -24 27 -37 -2 -64 -71 -67
-97 -207 -57 -300 39 -92 131 -152 230 -151 70 0 109 14 192 71 36 25 92 55
123 67 31 12 71 29 88 37 41 22 222 198 260 254 101 150 143 201 196 238 31
22 71 56 89 77 19 20 59 53 90 72 32 20 84 62 117 93 33 32 98 85 145 118 106
75 211 166 245 212 69 93 60 224 -22 311 -107 114 -256 110 -433 -13 -57 -39
-70 -37 -70 9 0 13 -18 58 -40 100 -21 43 -49 110 -61 148 -29 93 -74 182
-113 223 -96 103 -250 106 -349 8 l-44 -44 -60 5 c-106 10 -202 -40 -254 -132
-29 -51 -35 -56 -58 -51 -14 3 -64 11 -111 17 -47 6 -115 20 -153 31 -104 32
-171 17 -264 -58 -40 -33 -43 -34 -89 -24 -37 8 -59 7 -108 -6 -112 -30 -116
-30 -116 2 0 16 -7 65 -15 108 -18 94 -14 120 37 247 50 126 52 189 8 276 -48
95 -124 143 -227 143 -32 -1 -74 -8 -93 -16z m149 -190 c30 -38 26 -73 -20
-182 -50 -117 -60 -202 -36 -308 9 -38 18 -105 22 -149 4 -44 13 -102 21 -129
8 -27 14 -78 14 -112 0 -42 5 -65 15 -74 8 -7 15 -22 16 -34 0 -15 6 -9 19 21
19 43 157 191 197 212 33 17 113 13 158 -8 57 -26 94 -70 114 -136 l18 -57 7
126 c3 71 12 136 19 146 6 11 27 25 45 31 38 13 75 -5 94 -46 l11 -24 27 21
c22 16 36 19 62 14 18 -4 56 -10 83 -13 67 -7 105 -41 105 -94 0 -24 9 -52 25
-75 14 -20 26 -49 27 -63 0 -14 2 -30 3 -36 2 -5 4 -14 5 -20 3 -12 18 44 30
110 5 27 14 61 19 75 5 14 12 42 16 63 8 47 80 182 108 202 33 23 84 19 112
-10 31 -30 31 -56 0 -124 -19 -40 -23 -57 -14 -67 14 -17 7 -87 -19 -189 -11
-44 -20 -80 -19 -80 1 0 19 -8 40 -18 21 -9 45 -17 53 -17 14 0 90 -30 126
-50 43 -24 47 -7 19 78 -12 36 -24 115 -32 210 -11 139 -10 153 6 178 14 21
16 38 10 90 -7 71 3 100 41 114 55 21 99 -32 144 -175 41 -131 53 -160 73
-182 23 -25 36 -84 37 -164 0 -75 36 -146 71 -141 40 6 183 80 227 118 49 41
141 84 182 84 37 0 70 -31 70 -67 0 -39 -99 -131 -244 -228 -64 -42 -116 -81
-116 -85 0 -24 -62 -76 -127 -108 -48 -22 -79 -45 -88 -61 -17 -33 -53 -66
-136 -125 -45 -31 -69 -55 -74 -73 -3 -15 -26 -50 -49 -78 -24 -27 -51 -66
-61 -85 -21 -40 -165 -184 -206 -205 -15 -8 -51 -20 -79 -26 -38 -8 -67 -25
-121 -70 -79 -66 -116 -75 -156 -37 -29 27 -30 72 -3 112 24 38 122 121 170
146 20 10 42 25 48 33 10 12 8 16 -13 21 -29 7 -52 47 -61 104 -6 41 -6 41
-27 21 -32 -29 -83 -25 -117 10 -16 16 -32 41 -35 57 -4 16 -13 49 -21 73 -8
25 -14 56 -14 69 0 24 -57 122 -71 122 -9 0 -15 -21 -24 -82 -9 -66 -36 -98
-86 -98 -26 0 -46 7 -60 21 -19 19 -20 30 -17 131 2 76 0 104 -7 92 -32 -55
-100 -135 -135 -159 -39 -27 -99 -43 -166 -44 -21 -1 -45 10 -75 34 -24 19
-54 35 -66 35 -61 0 -83 39 -84 147 l0 78 -20 -45 c-19 -42 -19 -47 -5 -78 9
-18 16 -57 16 -88 0 -40 6 -62 21 -84 19 -25 21 -38 16 -97 -4 -58 -2 -73 18
-108 22 -38 42 -137 37 -179 -3 -28 -32 -56 -56 -56 -28 0 -90 22 -110 39 -10
8 -16 29 -16 53 0 32 -6 45 -35 72 -24 23 -35 42 -35 61 0 15 -10 43 -21 62
-18 28 -21 45 -17 101 4 54 1 72 -14 94 -31 45 -48 108 -48 181 0 39 -4 84
-10 101 -5 17 -12 44 -15 61 -6 29 -7 29 -21 11 -8 -12 -14 -44 -14 -80 0 -44
-7 -76 -25 -114 -18 -40 -25 -71 -25 -117 0 -79 -24 -115 -76 -115 -63 0 -93
32 -108 112 -4 23 -16 42 -32 53 -33 21 -58 80 -50 117 6 31 -7 100 -31 158
-7 19 -17 59 -22 88 -5 31 -17 62 -28 74 -20 19 -20 19 -37 -89 -10 -59 -22
-130 -27 -156 -5 -26 -9 -83 -9 -127 0 -74 -2 -80 -34 -119 -45 -54 -49 -67
-37 -139 10 -61 8 -74 -27 -192 -28 -94 -41 -117 -71 -130 -34 -14 -75 0 -92
32 -8 14 -13 63 -14 123 0 55 -4 106 -8 112 -5 7 -3 39 3 70 9 48 9 66 -4 102
-9 24 -16 74 -16 111 0 63 3 72 43 131 46 70 45 64 36 269 -3 72 1 98 23 165
37 109 58 196 58 236 1 46 33 114 64 134 21 14 31 15 57 6 42 -14 65 5 74 62
7 42 39 102 78 145 30 32 89 31 116 -4 27 -34 26 -60 -3 -147 -33 -98 -34
-105 -7 -159 17 -37 21 -57 16 -87 -4 -24 -2 -48 5 -61 7 -13 15 -43 19 -68 6
-48 26 -66 37 -35 4 10 18 33 31 50 26 36 42 83 73 213 15 63 32 102 64 150
31 46 46 80 51 116 3 28 14 62 23 76 102 153 116 168 158 168 23 0 39 -8 53
-26z m-4218 -169 c57 -29 101 -45 124 -45 28 0 44 -8 68 -32 18 -18 43 -34 57
-36 62 -8 101 -59 104 -134 1 -47 18 -101 28 -88 2 3 12 17 21 32 21 33 74 52
110 39 15 -6 39 -29 54 -52 54 -80 56 -87 44 -134 -6 -24 -11 -56 -11 -72 0
-15 -7 -36 -15 -47 -12 -16 -11 -20 11 -40 19 -15 26 -33 29 -66 1 -25 6 -53
10 -63 4 -10 2 -45 -5 -78 -12 -56 -12 -61 8 -82 11 -12 25 -33 31 -47 l10
-25 1 30 c0 17 7 41 15 55 8 14 14 36 15 50 0 38 36 88 75 107 19 9 44 31 54
49 25 42 75 67 131 66 119 -1 172 -10 200 -30 26 -20 29 -20 34 -4 17 59 27
155 21 213 -9 93 7 123 75 138 80 17 106 14 129 -15 23 -29 29 -112 11 -158
-6 -17 -5 -54 3 -112 11 -71 15 -84 25 -71 7 8 27 21 45 28 18 7 58 34 90 61
79 68 165 118 202 118 49 0 75 -25 75 -70 0 -33 -6 -44 -40 -71 -21 -17 -50
-49 -64 -70 -14 -21 -45 -49 -69 -64 -34 -19 -49 -36 -61 -70 -19 -48 -59 -88
-116 -113 -19 -9 -37 -17 -38 -19 -6 -3 66 -108 85 -125 10 -8 31 -18 46 -22
29 -7 67 -57 67 -90 0 -10 9 -34 20 -52 12 -18 28 -69 36 -114 9 -44 26 -113
40 -152 13 -39 24 -90 24 -112 0 -36 -6 -46 -47 -83 -32 -29 -56 -43 -76 -43
-37 0 -77 40 -77 78 0 40 -24 115 -47 149 -11 15 -25 43 -31 61 -7 19 -25 49
-42 68 -16 19 -30 45 -30 57 -1 29 -32 98 -53 115 -18 15 -15 21 -37 -86 -5
-30 -24 -87 -41 -128 -43 -104 -85 -129 -134 -80 -37 37 -46 86 -28 153 8 32
17 71 20 88 l6 29 -32 -27 c-24 -20 -44 -27 -74 -27 -26 0 -51 -8 -67 -20 -14
-11 -35 -20 -47 -20 -16 0 -29 -12 -44 -43 -32 -64 -48 -77 -89 -77 -45 0 -69
23 -77 74 -3 19 -12 41 -19 47 -8 6 -14 18 -14 25 0 8 -12 19 -27 25 -16 6
-36 18 -46 26 -9 9 -20 13 -24 9 -4 -3 -9 -41 -13 -84 -6 -75 -21 -122 -40
-122 -24 0 -7 -31 25 -46 39 -18 69 -55 79 -97 3 -15 22 -48 42 -74 49 -64 63
-95 80 -171 19 -92 18 -109 -11 -137 -36 -37 -71 -32 -114 14 -20 21 -46 43
-58 50 -28 14 -111 138 -124 184 -6 23 -21 43 -42 56 -18 11 -43 38 -55 60
-14 24 -37 47 -60 58 -22 11 -45 33 -57 55 -17 31 -25 38 -51 38 -40 0 -82 33
-92 73 -10 39 -42 57 -100 57 -44 0 -64 14 -105 74 -12 18 -27 26 -47 26 -34
0 -41 -23 -25 -83 7 -30 6 -49 -7 -84 -17 -46 -17 -47 9 -91 24 -41 25 -48 15
-92 -9 -40 -9 -54 3 -77 21 -40 19 -65 -10 -107 -18 -26 -25 -50 -25 -83 0
-76 -59 -116 -121 -83 -25 14 -49 62 -49 98 0 16 -11 41 -25 58 -20 23 -25 40
-25 81 0 28 -7 64 -15 80 -58 113 -63 145 -40 235 5 19 1 34 -15 56 -24 32
-26 53 -15 137 5 38 1 65 -14 109 -12 33 -21 71 -21 85 0 14 -9 40 -20 56 -11
17 -20 47 -20 67 0 20 -4 48 -10 62 -13 34 -15 92 -6 137 7 31 3 40 -33 84
-46 56 -57 101 -40 169 10 43 10 49 -8 69 -32 35 -43 62 -43 107 0 33 6 48 29
71 16 16 39 29 51 29 12 0 38 12 57 28 31 23 47 27 105 28 45 1 75 7 90 18
123 88 120 86 187 86 57 0 75 -5 152 -45z m2914 -607 c26 -20 27 -24 20 -77
-4 -31 -7 -89 -6 -129 1 -40 -5 -95 -14 -124 -21 -73 -19 -181 5 -246 26 -68
26 -132 0 -165 -36 -45 -91 -44 -143 1 -11 10 -32 15 -51 14 -18 -2 -56 6 -84
17 -29 12 -70 21 -90 21 -44 0 -64 13 -85 55 l-15 30 -13 -28 c-8 -18 -23 -30
-41 -34 -18 -3 -34 -16 -43 -33 -16 -31 -33 -40 -74 -40 -40 0 -58 18 -85 85
-26 64 -46 82 -46 41 0 -35 -45 -123 -69 -136 -53 -28 -99 4 -113 76 -5 27
-11 62 -15 77 -4 19 4 48 23 90 23 51 28 77 29 142 1 92 26 157 74 193 15 11
31 33 34 49 9 46 50 83 91 83 50 0 73 -29 81 -102 7 -59 7 -59 26 -39 45 48
128 17 145 -54 12 -51 16 -50 44 11 34 75 53 94 95 94 25 0 39 -7 55 -27 20
-25 21 -36 16 -93 -3 -36 -8 -76 -12 -90 l-7 -25 25 23 c15 13 28 36 31 50 3
15 13 52 22 82 10 30 20 73 24 96 8 45 43 109 69 124 28 16 68 11 97 -12z
m2702 -1160 c-3 -8 -6 -5 -6 6 -1 11 2 17 5 13 3 -3 4 -12 1 -19z m35 13 c8
11 9 11 6 1 -4 -16 -22 -18 -25 -2 -1 7 0 6 4 -1 4 -8 8 -7 15 2z"/>
<path d="M4982 2297 c-12 -13 -22 -28 -22 -33 0 -5 -17 -30 -39 -56 -31 -38
-40 -59 -46 -103 -4 -39 -17 -70 -42 -108 -44 -65 -61 -104 -78 -181 -27 -119
-44 -169 -68 -195 -14 -14 -29 -35 -35 -46 -19 -37 -42 -173 -43 -252 0 -43
-4 -86 -8 -97 -13 -32 -33 89 -35 206 -1 69 -6 112 -14 120 -7 7 -12 28 -12
48 -1 19 -7 46 -15 60 -8 14 -14 53 -15 91 0 54 -4 69 -21 85 -25 22 -22 55
18 182 21 68 23 85 13 98 -7 8 -22 14 -33 12 -23 -3 -87 -91 -87 -119 0 -11
-7 -34 -15 -52 -24 -51 -65 -113 -65 -99 0 6 -9 12 -19 12 -10 0 -21 7 -25 15
-17 44 -76 -30 -76 -95 0 -36 -31 -167 -61 -253 -17 -50 -19 -81 -17 -210 l3
-152 -42 -59 c-39 -54 -43 -65 -43 -118 0 -33 6 -69 12 -81 8 -13 13 -61 14
-117 1 -254 4 -288 21 -306 16 -15 18 -15 40 10 13 15 23 36 23 47 0 10 10 47
21 80 18 52 20 74 15 145 -8 91 -3 106 47 163 26 31 29 39 24 83 -4 27 0 82 7
121 30 158 37 232 31 310 -5 66 -2 94 14 142 l19 60 1 -62 c1 -50 6 -67 26
-91 14 -17 25 -35 25 -41 0 -6 11 -18 25 -27 18 -11 26 -28 30 -62 4 -26 18
-79 31 -117 14 -39 28 -108 32 -155 7 -83 8 -85 38 -100 26 -12 33 -22 38 -58
9 -63 32 -102 61 -102 33 0 45 27 45 97 0 41 8 74 25 111 18 40 25 71 25 117
0 52 4 69 24 92 48 58 60 94 58 173 0 41 3 91 7 110 8 32 9 32 10 8 1 -15 15
-43 32 -63 34 -38 34 -36 1 -148 -17 -56 -19 -76 -11 -120 6 -28 14 -97 18
-152 7 -97 31 -172 61 -190 8 -5 9 -33 4 -85 -6 -73 -5 -79 15 -92 15 -9 21
-23 21 -52 0 -31 7 -44 34 -70 28 -25 35 -40 38 -76 2 -37 6 -45 23 -45 11 0
25 -6 31 -14 7 -8 18 -11 29 -8 15 6 16 15 10 70 -4 34 -18 84 -32 110 -20 41
-23 56 -17 107 5 50 3 64 -15 93 -14 24 -21 51 -21 88 -1 30 -7 65 -15 79 -19
33 -19 74 1 111 21 42 27 245 8 274 -8 11 -14 45 -14 81 0 34 -9 89 -20 124
-11 35 -20 90 -20 126 0 34 -8 98 -18 141 -27 111 -17 197 38 331 37 88 41
106 32 127 -14 31 -32 32 -60 2z m38 -26 c0 -10 -18 -62 -40 -115 -53 -128
-61 -207 -31 -333 11 -50 21 -120 21 -156 0 -35 6 -80 14 -99 8 -19 17 -71 20
-117 2 -45 9 -88 14 -94 5 -7 10 -59 10 -117 0 -84 -4 -115 -21 -153 l-20 -48
21 -52 c14 -34 21 -69 19 -102 -1 -40 3 -57 21 -80 20 -25 23 -36 16 -75 -10
-65 -7 -83 21 -136 23 -43 38 -139 16 -105 -8 13 -12 13 -26 1 -15 -13 -16
-11 -10 22 6 32 3 39 -34 76 -32 32 -41 48 -41 75 0 24 -6 39 -22 49 -20 14
-21 17 -9 77 12 61 12 64 -14 101 -37 53 -55 120 -54 198 1 37 -4 80 -10 95
-16 41 -13 94 9 167 24 79 25 113 3 131 -24 20 -43 73 -43 119 0 22 -4 40 -9
40 -29 0 -52 -87 -54 -211 -2 -83 -4 -89 -40 -142 -33 -48 -39 -65 -44 -128
-3 -43 -14 -91 -26 -113 -10 -22 -21 -67 -24 -100 -3 -34 -7 -68 -10 -76 -8
-26 -43 28 -43 67 0 47 -14 69 -50 82 -30 10 -31 13 -29 63 2 62 -14 145 -36
187 -8 16 -18 55 -21 87 -5 42 -14 65 -36 89 -15 18 -28 37 -28 42 0 6 -9 18
-20 28 -16 15 -20 31 -20 85 0 50 -4 71 -16 81 -14 11 -18 10 -30 -5 -24 -34
-47 -129 -45 -186 6 -114 4 -148 -13 -250 -10 -58 -20 -143 -23 -190 -4 -72
-9 -89 -28 -110 -45 -48 -57 -92 -44 -165 11 -58 10 -71 -9 -132 -12 -37 -26
-81 -30 -98 -22 -77 -35 21 -33 241 1 58 -4 106 -14 134 -25 72 -20 111 25
178 52 77 63 132 48 240 -13 90 -10 116 37 272 14 47 30 116 36 154 10 76 28
121 29 74 0 -31 11 -36 30 -13 11 14 15 13 28 -6 l15 -22 19 23 c10 12 18 30
18 39 0 9 14 36 30 60 17 24 30 56 30 70 0 25 57 121 73 121 13 0 7 -36 -18
-114 -32 -97 -33 -156 -4 -182 18 -16 20 -27 16 -70 -4 -34 -1 -61 9 -79 8
-15 14 -47 14 -70 0 -29 5 -45 15 -49 12 -4 15 -25 16 -98 1 -137 26 -271 50
-276 26 -5 39 49 49 188 10 148 21 192 62 244 33 41 47 81 79 216 13 57 31
101 54 135 41 61 65 115 65 150 0 30 22 76 45 95 9 8 25 31 36 52 21 41 39 50
39 19z"/>
<path d="M6623 1858 c-4 -7 -6 -46 -4 -85 2 -58 -1 -76 -14 -90 -14 -13 -16
-27 -11 -62 4 -25 11 -93 15 -151 5 -58 16 -123 25 -145 8 -22 15 -57 16 -77
0 -27 6 -42 20 -50 25 -16 25 -33 -2 -110 -11 -35 -22 -81 -22 -102 -1 -38 -4
-41 -41 -54 -92 -32 -107 -41 -103 -66 2 -19 -7 -32 -40 -56 -54 -38 -70 -70
-54 -106 12 -24 7 -30 -88 -123 -55 -55 -100 -103 -100 -109 0 -6 -24 -24 -54
-41 -68 -38 -157 -115 -175 -152 -12 -23 -12 -31 -1 -44 20 -24 35 -18 97 36
64 57 96 73 163 84 37 6 57 20 129 89 47 44 100 105 118 135 19 30 49 71 68
92 19 22 35 47 35 57 0 22 22 42 112 105 37 26 79 66 95 89 16 24 45 49 68 60
89 42 111 57 132 89 30 46 40 56 100 92 94 58 137 90 205 150 57 50 66 62 57
78 -5 11 -15 19 -22 19 -21 0 -119 -50 -152 -77 -40 -33 -137 -93 -150 -93 -5
0 -22 -6 -37 -14 -15 -8 -42 -17 -60 -21 -18 -4 -41 -14 -51 -23 -16 -14 -17
-14 -12 0 3 8 -10 47 -30 87 -22 44 -36 85 -35 104 5 91 0 126 -25 155 -13 16
-34 60 -46 98 -64 206 -100 272 -126 232z m67 -128 c11 -36 28 -87 37 -115 8
-27 29 -71 44 -96 26 -41 29 -55 29 -127 0 -44 5 -84 10 -87 6 -3 10 -14 10
-23 0 -9 9 -28 20 -42 24 -30 25 -61 5 -100 -23 -44 0 -47 42 -5 21 21 55 43
78 50 116 38 151 57 242 127 24 18 66 43 95 56 l53 23 -45 -46 c-25 -25 -70
-63 -100 -83 -30 -20 -68 -47 -83 -59 -15 -12 -44 -30 -63 -39 -20 -10 -46
-33 -59 -53 -31 -49 -51 -65 -115 -93 -50 -23 -120 -85 -120 -108 0 -5 -33
-32 -72 -59 -82 -55 -112 -85 -123 -121 -4 -14 -25 -44 -45 -66 -21 -23 -46
-57 -56 -75 -22 -44 -161 -186 -194 -198 -14 -5 -49 -15 -77 -21 -41 -9 -66
-24 -113 -66 -33 -30 -65 -54 -70 -54 -42 0 63 107 156 160 29 16 61 44 73 63
11 18 32 39 46 45 14 6 25 16 25 22 0 5 28 37 62 69 62 59 63 60 51 92 -16 42
-6 58 62 104 53 35 55 38 40 55 -15 17 -15 19 7 25 13 4 47 16 76 27 52 19 52
20 52 62 0 24 8 67 19 97 10 30 21 70 25 90 6 32 3 37 -19 47 -21 10 -25 18
-25 54 0 24 -8 66 -19 93 -24 64 -38 311 -18 318 8 2 12 28 11 86 -1 73 1 80
12 60 7 -13 23 -53 34 -89z"/>
<path d="M6317 1759 c-22 -13 -97 -164 -97 -195 0 -13 -5 -35 -11 -51 -12 -31
-28 -111 -36 -185 -5 -45 -7 -48 -33 -48 -16 0 -32 -4 -35 -10 -3 -5 -17 -10
-29 -10 -13 0 -29 -7 -36 -15 -23 -28 -7 -47 63 -71 38 -12 71 -25 74 -27 2
-3 -1 -16 -8 -29 -11 -20 -19 -225 -20 -487 0 -47 26 -90 45 -71 19 19 46 126
57 225 5 55 14 104 18 110 9 11 23 146 21 213 -1 45 5 50 36 27 10 -8 39 -15
64 -15 25 0 56 -7 70 -15 40 -23 79 -19 90 9 5 13 14 27 19 31 24 14 11 45
-26 61 -21 9 -50 23 -65 30 -14 8 -39 14 -56 14 -16 0 -35 7 -42 16 -10 11
-23 14 -53 8 -39 -6 -40 -5 -32 17 20 64 64 236 65 253 0 11 -8 28 -17 38 -16
18 -15 22 17 84 26 50 31 70 23 83 -12 20 -42 24 -66 10z m43 -31 c0 -7 -11
-31 -23 -53 -36 -63 -38 -72 -15 -100 21 -26 21 -29 5 -74 -10 -25 -17 -54
-17 -63 0 -10 -10 -50 -23 -90 -13 -41 -22 -79 -19 -86 2 -7 23 -12 53 -12 43
0 49 -3 49 -21 0 -16 4 -19 18 -13 28 13 69 8 87 -10 9 -9 27 -16 39 -16 13 0
29 -6 35 -14 10 -12 8 -17 -8 -26 -12 -6 -21 -18 -21 -26 0 -17 -30 -11 -64
12 -13 9 -33 11 -58 7 -27 -4 -43 -1 -56 10 -17 15 -35 21 -58 18 -12 -1 -24
-107 -23 -198 0 -23 -6 -55 -14 -70 -8 -15 -17 -66 -21 -113 -8 -99 -34 -202
-49 -193 -6 3 -7 32 -2 77 4 39 7 127 6 196 -2 69 -3 136 -3 150 0 23 11 74
27 127 5 15 3 24 -6 26 -13 4 -105 32 -139 44 -16 5 43 31 93 40 34 7 40 15
49 81 27 179 48 259 88 335 23 44 41 67 52 67 10 0 18 -6 18 -12z"/>
<path d="M5665 1631 c-3 -6 -7 -65 -10 -133 -2 -68 -7 -151 -11 -184 -6 -55
-4 -64 16 -84 21 -21 22 -26 11 -70 -8 -30 -9 -55 -3 -71 5 -13 8 -67 5 -119
-5 -117 0 -140 30 -140 33 0 47 19 47 61 0 20 7 53 15 72 9 21 16 71 16 119 2
77 2 79 8 30 5 -37 13 -59 27 -70 12 -10 35 -38 52 -63 17 -25 37 -51 46 -58
10 -8 16 -29 16 -52 0 -21 6 -56 14 -76 8 -21 17 -51 21 -68 12 -55 54 -82 83
-53 17 17 15 52 -5 96 -10 23 -17 66 -17 113 -1 65 -5 82 -29 118 -18 26 -27
51 -24 63 8 30 -8 63 -52 107 l-39 39 48 31 c26 17 53 31 59 31 5 0 26 14 46
31 47 42 49 96 5 156 -23 32 -29 48 -24 68 9 37 -19 65 -66 65 -20 0 -52 5
-69 11 -31 11 -35 9 -72 -27 -21 -21 -42 -47 -45 -57 -10 -31 -24 0 -24 54 0
25 -5 50 -12 57 -14 14 -54 16 -63 3z m49 -33 c2 -13 8 -50 13 -82 9 -67 24
-81 42 -39 6 15 27 46 45 68 33 39 34 39 72 27 22 -6 49 -9 62 -6 32 9 52 -12
46 -45 -4 -20 3 -42 25 -78 52 -84 40 -111 -79 -172 -95 -48 -100 -66 -36
-122 40 -35 46 -46 46 -79 0 -22 10 -56 25 -81 20 -35 25 -58 25 -112 0 -47 7
-84 21 -117 23 -52 20 -84 -6 -74 -17 7 -55 126 -55 175 0 27 -14 54 -60 116
-32 45 -64 84 -70 88 -5 3 -10 26 -10 50 0 56 -8 75 -30 75 -24 0 -30 -19 -30
-105 0 -42 -6 -88 -15 -108 -8 -20 -15 -54 -15 -76 0 -36 -14 -61 -26 -48 -9
8 -11 142 -3 171 6 19 3 40 -6 63 -13 30 -13 38 0 63 22 42 19 66 -12 94 -26
24 -26 27 -15 78 6 29 11 87 12 128 0 41 3 93 5 115 2 22 4 43 4 48 2 17 21 5
25 -15z"/>
<path d="M5829 1458 c-59 -65 -66 -73 -73 -86 -10 -17 61 -112 84 -112 10 0
30 14 45 32 23 27 26 39 22 73 -5 34 -2 44 21 68 26 28 27 29 8 43 -34 24 -74
17 -107 -18z m67 -17 c-11 -12 -17 -33 -16 -58 3 -57 2 -61 -21 -84 l-21 -21
-19 28 c-10 16 -24 37 -31 46 -11 15 -9 20 10 33 12 9 29 29 37 46 12 23 22
29 47 29 30 0 31 -1 14 -19z"/>
<path d="M5831 1366 c-9 -10 -8 -16 4 -26 13 -11 15 -8 15 14 0 30 -3 32 -19
12z"/>
<path d="M5323 1531 c-17 -11 -43 -36 -56 -56 -14 -21 -39 -46 -57 -56 -30
-19 -60 -71 -60 -105 0 -9 -9 -27 -20 -41 -25 -31 -26 -80 -3 -113 13 -19 17
-42 15 -106 -3 -88 9 -114 49 -114 27 0 81 -28 99 -51 13 -17 24 -18 78 -13
72 8 108 31 173 113 64 81 67 114 14 191 l-24 35 22 61 c21 61 21 62 2 125
-21 72 -43 102 -97 130 -47 24 -94 24 -135 0z m122 -20 c49 -22 59 -34 79 -91
20 -58 20 -101 -1 -160 l-17 -47 32 -50 c18 -27 32 -61 32 -74 0 -47 -150
-206 -173 -183 -3 3 -21 1 -41 -4 -30 -9 -38 -7 -48 6 -17 22 -81 54 -110 56
-22 1 -23 6 -28 91 -4 64 -11 99 -25 122 l-19 33 27 53 c15 30 27 63 27 74 0
12 17 35 38 53 20 18 52 51 70 74 56 69 88 79 157 47z"/>
<path d="M5301 1374 c-11 -15 -21 -39 -21 -55 0 -15 -11 -45 -25 -65 -39 -57
-30 -149 16 -156 14 -2 30 -17 42 -40 15 -30 25 -38 47 -38 60 0 75 26 48 85
-9 19 -8 38 2 81 l14 56 -33 25 c-30 24 -32 29 -29 77 3 46 1 51 -18 54 -14 2
-29 -7 -43 -24z m33 -44 c-6 -37 -4 -43 28 -72 35 -33 35 -33 22 -73 -13 -34
-12 -45 1 -84 8 -24 15 -46 15 -48 0 -2 -12 -3 -27 -3 -21 0 -33 8 -45 30 -9
17 -29 35 -43 40 -22 8 -25 15 -25 56 0 35 6 53 25 76 14 16 25 42 25 58 0 35
9 60 21 60 5 0 6 -18 3 -40z"/>
<path d="M5300 1216 c-15 -20 -6 -62 16 -70 22 -8 22 -8 26 39 3 43 -18 59
-42 31z"/>
<path d="M5583 1248 c-8 -19 -5 -30 16 -62 24 -36 26 -37 35 -17 7 15 5 26 -7
39 -9 9 -20 28 -25 41 l-8 23 -11 -24z"/>
<path d="M5965 1210 c-3 -5 6 -27 20 -48 14 -22 28 -57 31 -78 3 -21 15 -57
27 -79 14 -27 23 -68 28 -125 7 -95 32 -178 43 -144 3 11 3 74 0 140 -8 157
-8 152 1 206 7 46 7 47 -21 53 -57 12 -93 34 -100 60 -6 26 -18 32 -29 15z"/>
<path d="M6593 1098 c-25 -38 -34 -43 -71 -46 -25 -2 -56 3 -74 12 -17 9 -48
16 -68 16 -36 0 -38 -2 -48 -43 -6 -23 -9 -53 -5 -65 3 -12 -2 -44 -11 -71 -9
-28 -20 -92 -26 -143 -5 -52 -16 -114 -25 -138 l-15 -43 54 49 c50 46 54 52
55 98 1 44 5 53 51 99 28 28 50 58 50 67 0 25 30 48 91 69 44 15 53 22 51 39
-2 11 6 45 17 76 11 31 16 58 11 61 -5 3 -21 -14 -37 -37z"/>
<path d="M643 2153 c-18 -10 -60 -37 -94 -60 -48 -34 -67 -41 -87 -36 -53 13
-81 6 -127 -30 -26 -20 -53 -33 -61 -30 -23 9 -44 -17 -44 -53 0 -23 10 -44
32 -69 31 -35 31 -37 20 -86 -19 -81 -15 -103 23 -150 54 -63 58 -75 47 -123
-7 -28 -7 -55 0 -86 5 -25 11 -64 12 -87 1 -25 10 -54 24 -72 12 -17 22 -45
22 -63 0 -19 9 -59 20 -91 22 -63 25 -112 9 -154 -9 -24 -6 -36 17 -80 26 -47
27 -55 16 -86 -19 -54 -14 -93 23 -168 25 -51 35 -85 35 -119 0 -34 5 -52 20
-65 13 -11 20 -31 20 -52 0 -19 7 -47 15 -63 30 -57 82 -24 70 43 -5 25 0 40
19 66 30 41 31 48 10 90 -13 27 -14 39 -3 79 11 46 10 50 -16 90 l-28 42 18
46 c11 29 15 56 10 77 -3 18 -6 43 -6 57 1 14 -4 49 -11 78 -15 70 -3 82 43
42 24 -21 44 -30 70 -30 33 0 40 -5 69 -49 35 -55 46 -63 73 -49 13 7 29 5 52
-6 18 -9 37 -16 42 -16 5 0 21 -24 34 -53 24 -52 25 -52 67 -50 42 2 44 1 63
-42 20 -45 51 -75 79 -75 8 0 25 -19 38 -43 12 -23 44 -58 70 -78 26 -20 46
-41 44 -48 -6 -29 86 -181 110 -181 6 0 28 -18 48 -40 27 -29 42 -38 55 -34
14 6 16 15 10 53 -11 81 -36 142 -81 197 -24 29 -44 64 -44 77 0 32 -25 64
-70 87 -21 11 -41 29 -45 40 -3 11 -22 32 -40 46 -22 17 -39 42 -50 75 -11 31
-27 56 -46 70 -16 11 -41 43 -54 69 -28 56 -58 80 -97 80 -18 0 -33 8 -44 25
-9 14 -26 25 -39 25 -16 0 -26 9 -35 31 -11 25 -32 45 -68 64 -1 1 15 20 35
42 22 24 51 43 70 47 42 9 81 57 89 106 4 22 15 47 25 56 11 10 19 31 19 50 0
19 11 49 25 70 21 31 25 49 25 113 0 42 1 89 2 104 0 16 -8 37 -20 50 -18 19
-21 31 -15 74 5 48 4 54 -25 83 -28 27 -35 30 -71 24 -38 -6 -41 -5 -41 18 0
33 -18 48 -58 48 -20 0 -67 18 -119 45 -102 54 -154 64 -200 38z m198 -64 c71
-36 107 -49 123 -45 25 6 36 -8 36 -44 0 -23 20 -30 64 -23 53 8 66 -8 66 -82
0 -47 5 -67 20 -84 17 -21 18 -33 13 -124 -5 -77 -10 -108 -25 -126 -10 -13
-18 -38 -18 -56 0 -18 -8 -43 -19 -56 -10 -13 -21 -38 -25 -54 -13 -60 -41
-92 -85 -100 -32 -5 -45 -14 -56 -36 -9 -15 -25 -34 -38 -40 -12 -7 -25 -17
-29 -23 -9 -14 20 -46 42 -46 10 0 28 -21 44 -50 23 -42 30 -49 42 -39 8 6 16
10 17 8 2 -2 11 -16 20 -32 14 -21 24 -27 47 -25 36 3 67 -24 91 -77 10 -22
33 -52 52 -67 24 -19 38 -40 46 -72 8 -34 19 -49 40 -60 16 -9 38 -31 49 -51
12 -19 37 -43 57 -52 29 -14 38 -25 47 -61 6 -26 28 -64 54 -94 47 -55 74
-121 74 -177 l0 -36 -20 32 c-11 18 -30 35 -43 38 -31 8 -107 121 -107 159 0
15 -9 35 -22 46 -61 52 -94 88 -109 117 -11 21 -27 33 -48 38 -25 5 -37 17
-58 58 -35 70 -40 72 -100 50 -7 -3 -17 8 -23 23 -22 60 -36 76 -87 101 -41
20 -56 24 -65 15 -19 -19 -24 -15 -62 38 -32 45 -40 50 -73 50 -28 0 -45 8
-69 31 -61 59 -113 14 -80 -66 9 -21 14 -47 10 -58 -3 -10 -1 -38 6 -62 10
-36 9 -47 -4 -73 -21 -41 -20 -70 5 -111 17 -29 20 -43 14 -91 -5 -43 -3 -65
9 -88 15 -29 15 -32 -9 -60 -20 -24 -25 -41 -25 -82 0 -46 -2 -51 -15 -40 -9
7 -15 29 -15 54 0 32 -6 48 -24 65 -19 18 -24 33 -24 71 0 36 -9 69 -37 126
-36 74 -38 80 -26 118 18 57 15 92 -9 132 -19 29 -20 40 -12 79 10 48 3 102
-22 174 -9 24 -13 54 -10 67 4 17 -1 34 -18 57 -28 37 -43 127 -40 242 2 69 1
71 -39 120 l-41 50 6 85 7 86 -31 32 c-39 41 -40 89 -2 84 14 -2 36 8 58 27
39 35 37 34 120 35 56 1 64 4 130 53 93 71 120 71 255 2z"/>
<path d="M614 1870 c-30 -23 -50 -30 -85 -30 -33 0 -49 -5 -53 -16 -9 -25 -7
-72 4 -79 6 -3 10 -30 10 -60 0 -31 6 -59 13 -67 25 -24 35 -52 30 -83 -3 -22
1 -36 16 -49 14 -13 21 -31 21 -57 0 -21 7 -45 15 -53 12 -11 14 -25 9 -51 -3
-19 -4 -42 0 -50 5 -14 9 -14 37 0 28 15 33 15 54 1 32 -21 36 -21 74 13 19
17 47 33 65 36 55 12 74 31 86 88 7 33 21 65 39 84 38 42 45 76 25 114 -11 23
-13 34 -5 42 18 18 13 34 -19 70 -16 19 -30 44 -30 56 0 45 -18 62 -62 59 -37
-3 -43 0 -58 27 -15 28 -21 30 -82 32 -58 3 -69 0 -104 -27z m175 -32 c18 -23
30 -29 55 -27 42 4 57 -7 50 -36 -4 -17 3 -33 31 -63 21 -24 32 -43 25 -47
-13 -8 -13 -52 0 -60 20 -12 9 -57 -25 -102 -19 -25 -35 -56 -35 -69 0 -49
-17 -71 -64 -83 -25 -6 -60 -24 -78 -40 -31 -27 -34 -28 -56 -13 -19 12 -30
13 -53 5 -32 -12 -35 -7 -17 31 9 21 8 29 -5 44 -10 10 -17 35 -17 56 0 26 -7
43 -24 59 -18 17 -22 29 -19 54 4 23 -1 41 -18 64 -16 22 -22 46 -22 78 0 26
-6 53 -14 63 -8 9 -13 27 -11 40 3 20 8 23 39 20 27 -2 47 5 84 31 44 30 55
33 100 29 40 -4 55 -10 74 -34z"/>
<path d="M657 1810 c-14 -11 -41 -27 -59 -34 -30 -13 -33 -18 -34 -62 -1 -34
5 -56 22 -82 13 -19 24 -48 24 -63 0 -16 9 -46 20 -66 11 -21 20 -48 20 -60 0
-24 37 -93 50 -93 5 0 29 11 53 23 24 13 53 26 64 29 15 4 22 17 27 48 4 25
20 60 38 83 26 33 30 42 20 58 -7 10 -12 33 -12 50 0 17 -8 43 -18 57 -10 15
-22 35 -25 45 -4 9 -15 17 -26 17 -11 0 -35 13 -53 28 -46 40 -79 47 -111 22z"/>
<path d="M1293 1848 c-17 -21 -21 -42 -11 -60 6 -12 3 -28 -7 -47 -26 -52 -20
-84 26 -120 30 -25 46 -31 64 -27 33 8 41 28 50 114 7 69 6 74 -14 79 -13 3
-21 13 -21 27 0 12 -5 27 -12 34 -16 16 -63 15 -75 0z m57 -43 c0 -33 7 -40
38 -36 15 2 14 -26 -1 -94 -14 -60 -36 -68 -82 -30 -29 24 -29 26 -16 57 8 18
15 51 15 73 1 45 11 65 32 65 9 0 14 -11 14 -35z"/>
<path d="M2191 1826 c-7 -8 -21 -12 -31 -9 -39 10 -50 -12 -43 -95 6 -86 -2
-136 -48 -297 -38 -133 -42 -188 -16 -193 11 -2 32 9 50 25 16 15 27 23 24 17
-4 -6 -9 -36 -13 -65 -3 -30 -11 -62 -16 -72 -5 -10 -7 -40 -4 -65 6 -47 -12
-173 -33 -225 -14 -36 -14 -79 1 -112 17 -37 44 -32 63 13 9 20 23 52 31 69 7
18 21 73 30 123 14 74 20 90 35 90 10 0 22 8 28 17 8 16 11 14 22 -10 7 -15
16 -27 21 -27 12 0 58 -100 58 -127 0 -12 14 -38 30 -57 17 -18 37 -53 45 -76
8 -23 24 -54 35 -70 17 -24 28 -62 46 -156 7 -39 64 -38 64 2 0 7 10 14 23 16
33 5 33 37 -2 142 -16 51 -33 117 -37 147 -3 30 -15 70 -26 89 -11 19 -26 55
-32 80 -10 40 -16 46 -53 60 -28 10 -53 30 -75 60 -44 59 -78 117 -78 135 0 8
28 28 63 43 70 32 86 47 107 106 11 30 29 50 68 76 29 19 61 49 71 66 11 18
35 44 55 59 40 30 47 60 16 70 -28 9 -123 -45 -194 -110 -32 -30 -71 -57 -86
-60 -15 -3 -36 -15 -46 -27 -17 -18 -84 -58 -99 -58 -9 0 -6 32 6 65 9 25 8
48 -3 106 -13 63 -13 80 -1 113 16 48 17 108 1 124 -16 16 -43 15 -57 -2z m39
-89 c-7 -23 -12 -69 -10 -102 4 -55 4 -107 1 -209 -1 -22 1 -41 3 -43 6 -7
111 55 131 77 10 11 28 20 41 20 13 0 55 28 103 70 86 74 133 103 158 98 10
-2 2 -12 -24 -32 -21 -16 -47 -43 -58 -60 -11 -17 -41 -44 -67 -61 -36 -23
-52 -42 -71 -86 -21 -49 -30 -59 -73 -78 -75 -34 -78 -36 -91 -62 -10 -20 -9
-30 14 -69 49 -85 103 -150 131 -156 35 -9 52 -22 52 -44 0 -9 11 -39 25 -66
14 -27 30 -78 36 -114 5 -36 21 -96 34 -135 12 -38 26 -83 29 -100 l6 -30 -23
28 c-29 34 -37 28 -30 -24 8 -60 -11 -46 -26 19 -15 66 -93 234 -127 275 -13
16 -24 38 -24 50 0 20 -22 62 -75 145 -20 31 -48 42 -60 22 -3 -5 -15 -10 -25
-10 -26 0 -29 -7 -46 -106 -16 -89 -59 -214 -75 -214 -18 0 -20 50 -5 97 27
85 46 213 33 240 -7 17 -7 29 1 46 11 21 32 132 32 170 0 28 -34 20 -59 -14
-36 -49 -49 -23 -23 46 12 31 22 65 22 76 0 10 12 58 26 106 21 71 26 108 26
191 -1 97 0 103 18 97 11 -4 30 1 42 10 22 14 24 14 32 -6 7 -14 5 -34 -4 -62z"/>
<path d="M1230 1588 c0 -7 -7 -26 -16 -43 -9 -16 -21 -50 -25 -74 -5 -25 -15
-52 -23 -60 -8 -9 -20 -35 -26 -58 -18 -59 -63 -110 -109 -123 -54 -14 -60
-38 -19 -72 18 -15 43 -36 55 -46 11 -11 33 -22 48 -26 46 -12 76 -37 107 -93
40 -71 100 -115 77 -56 -5 14 -13 69 -16 122 -4 58 -12 105 -21 119 -11 16
-13 35 -7 70 3 26 6 58 5 72 -6 142 -2 201 15 220 17 19 17 21 0 40 -20 22
-45 27 -45 8z"/>
<path d="M1335 1521 c-28 -6 -30 -10 -31 -51 0 -25 -3 -57 -7 -72 -5 -18 -2
-31 8 -42 19 -19 19 -28 -2 -86 -16 -46 -16 -49 2 -76 14 -22 19 -50 20 -119
1 -50 7 -100 13 -112 7 -12 12 -53 12 -91 0 -54 4 -72 18 -85 10 -10 24 -17
31 -17 18 0 31 45 31 106 0 30 7 71 15 91 18 43 19 83 3 118 -10 21 -8 32 10
64 28 49 28 53 -4 91 -25 29 -26 35 -19 93 8 71 8 74 -2 142 -8 47 -10 50 -38
52 -17 0 -43 -2 -60 -6z m75 -43 c2 -50 2 -107 -2 -171 -3 -51 0 -61 20 -77
25 -21 28 -47 7 -74 -18 -24 -19 -49 -3 -92 10 -27 8 -41 -10 -89 -14 -35 -22
-79 -22 -117 0 -43 -3 -59 -12 -56 -8 3 -15 33 -18 84 -3 43 -9 85 -14 92 -4
8 -8 56 -8 107 1 70 -3 97 -14 106 -18 15 -18 57 1 103 13 30 13 41 3 59 -7
12 -13 48 -13 80 -1 53 1 57 21 57 13 0 26 5 29 10 13 22 33 9 35 -22z"/>
<path d="M1770 1498 c-31 -16 -46 -30 -48 -46 -3 -16 -16 -29 -45 -41 -52 -22
-62 -35 -72 -86 -3 -21 -13 -52 -21 -67 -8 -15 -14 -38 -14 -51 0 -13 -11 -38
-25 -57 -26 -35 -33 -84 -14 -96 7 -4 8 -20 4 -41 -8 -44 7 -63 52 -63 30 0
35 -3 30 -20 -3 -11 3 -30 14 -44 10 -13 19 -35 19 -48 0 -13 6 -32 13 -42 23
-31 50 -15 81 47 24 48 33 57 55 57 14 0 40 9 56 20 18 12 47 20 72 20 33 0
46 5 62 26 24 30 28 82 7 90 -8 3 -27 -1 -44 -10 -27 -14 -32 -13 -64 4 -42
22 -124 19 -163 -6 -23 -15 -25 -15 -31 0 -3 9 6 36 20 60 31 54 32 63 5 92
-26 28 -19 41 61 106 38 30 55 52 54 67 -1 23 7 26 84 35 53 5 84 31 80 65 -3
25 -6 26 -65 26 -36 0 -67 5 -75 13 -17 17 -38 15 -88 -10z m86 -19 c4 -8 25
-9 60 -5 33 4 55 2 59 -4 13 -21 -17 -38 -78 -45 -34 -4 -70 -11 -79 -16 -20
-11 -25 -39 -7 -39 6 0 -19 -25 -55 -56 -72 -61 -88 -94 -62 -123 21 -23 20
-33 -9 -92 -20 -39 -23 -54 -15 -69 13 -23 42 -26 73 -6 29 19 103 19 140 -1
28 -14 52 -14 90 2 24 10 22 -16 -4 -44 -15 -16 -28 -21 -47 -16 -17 3 -41 -2
-64 -15 -21 -11 -49 -20 -62 -20 -28 0 -53 -28 -80 -89 -22 -48 -36 -53 -36
-12 0 15 -9 40 -20 54 -11 14 -20 36 -20 49 0 32 -18 48 -52 48 -33 0 -37 23
-13 71 17 32 11 59 -8 40 -14 -14 -27 -14 -27 -1 0 5 14 31 30 57 17 26 30 56
30 67 0 11 6 38 14 61 8 22 17 52 20 67 5 20 17 30 51 43 28 11 47 25 51 39
13 48 100 87 120 55z"/>
<path d="M1985 1379 c-16 -11 -42 -19 -56 -19 -19 0 -47 -20 -98 -69 -66 -64
-71 -71 -61 -92 7 -12 10 -37 7 -55 l-6 -34 50 0 c28 0 60 -7 74 -16 18 -12
28 -13 44 -5 26 15 74 14 89 -1 9 -9 12 -8 12 7 0 11 7 33 15 49 18 35 18 36
1 36 -8 0 -28 11 -43 24 -23 20 -28 32 -27 68 0 23 9 58 18 76 23 44 17 53
-19 31z"/>
<path d="M3694 1530 c-23 -9 -46 -59 -64 -140 -29 -127 -54 -189 -89 -215 -41
-30 -86 -75 -95 -95 -6 -15 -2 27 15 135 21 135 21 140 5 160 -23 31 -46 9
-86 -84 -29 -69 -37 -79 -47 -66 -6 9 -20 18 -30 19 -11 2 -23 19 -33 47 -20
58 -27 69 -50 69 -29 0 -36 -25 -39 -125 -3 -88 -15 -130 -32 -104 -4 7 -15
47 -24 88 -8 42 -20 95 -25 119 -6 23 -10 56 -10 73 0 95 -65 87 -94 -12 -10
-32 -19 -45 -37 -49 -34 -8 -74 -111 -60 -153 13 -35 2 -85 -36 -165 -21 -45
-23 -57 -14 -84 6 -17 11 -41 11 -54 0 -22 23 -54 40 -54 16 0 59 86 53 108
-3 11 2 31 11 44 9 12 16 30 16 38 0 9 6 25 14 35 21 29 42 5 66 -74 27 -91
54 -133 83 -129 21 3 22 7 21 85 -1 45 3 80 7 77 5 -3 9 -20 9 -38 0 -36 15
-56 42 -56 29 0 46 40 44 103 -1 31 2 57 6 57 7 0 53 -76 88 -145 19 -37 47
-44 58 -15 l8 21 19 -21 c46 -51 157 -73 172 -34 7 20 23 17 23 -4 0 -62 85
-85 105 -29 7 22 5 43 -13 92 -27 79 -30 207 -5 295 13 50 14 66 4 97 -10 31
-9 47 3 88 9 28 16 58 16 67 0 23 -30 38 -56 28z m27 -33 c0 -4 -5 -32 -12
-63 -10 -43 -10 -63 -1 -88 10 -26 8 -44 -8 -101 -26 -90 -26 -197 -1 -267 30
-84 33 -104 15 -119 -14 -11 -19 -10 -35 10 -11 13 -19 33 -19 45 0 12 -6 30
-13 40 -13 17 -15 16 -35 -18 -23 -39 -49 -46 -99 -24 -44 19 -63 39 -63 68 0
65 40 131 110 182 32 24 42 41 64 112 14 47 31 109 36 137 11 57 35 102 51 97
6 -2 10 -7 10 -11z m-647 -129 c7 -80 31 -194 51 -248 16 -41 27 -227 15 -235
-12 -7 -33 35 -53 102 -18 62 -35 94 -56 110 -28 22 -42 14 -62 -34 -11 -27
-27 -60 -35 -75 -8 -14 -11 -33 -8 -41 3 -8 -3 -30 -12 -49 l-18 -33 -7 35
c-5 19 -11 46 -14 60 -4 17 3 45 21 85 22 48 27 76 29 140 1 90 22 145 55 145
15 0 23 13 35 52 14 49 31 72 46 63 3 -3 9 -37 13 -77z m367 -123 c-7 -38 -16
-90 -21 -115 -6 -25 -12 -78 -14 -118 -3 -41 -7 -76 -9 -78 -2 -3 -16 20 -31
51 -33 67 -102 160 -119 160 -9 0 -12 -25 -12 -90 0 -94 -14 -124 -28 -58 -4
21 -12 42 -17 47 -15 15 -12 53 6 88 9 16 15 49 13 72 -3 75 1 136 10 136 5 0
18 -26 28 -57 14 -43 24 -59 41 -63 12 -3 30 -20 40 -39 24 -48 42 -51 42 -9
0 34 42 150 63 177 18 22 21 -21 8 -104z"/>
<path d="M3552 1092 c-56 -47 -52 -132 8 -132 27 0 80 66 80 100 0 67 -32 79
-88 32z m58 -52 c-18 -45 -43 -63 -64 -47 -14 10 -15 17 -6 42 13 38 61 69 73
47 5 -8 4 -26 -3 -42z"/>
<path d="M2991 1268 c-39 -93 -37 -105 24 -110 l40 -3 0 60 c1 102 -31 129
-64 53z m41 -41 c5 -45 4 -47 -16 -41 -30 9 -30 9 -10 53 10 22 19 40 20 38 1
-1 4 -24 6 -50z"/>
</g>
</svg>
